<?xml version="1.0" standalone="no"?>
<!DOCTYPE svg PUBLIC "-//W3C//DTD SVG 20010904//EN"
 "http://www.w3.org/TR/2001/REC-SVG-20010904/DTD/svg10.dtd">
<svg version="1.0" xmlns="http://www.w3.org/2000/svg"
 width="512.000000pt" height="512.000000pt" viewBox="0 0 512.000000 512.000000"
 preserveAspectRatio="xMidYMid meet">

<g transform="translate(0.000000,512.000000) scale(0.100000,-0.100000)"
fill="#000000" stroke="none">
<path d="M2774 5109 c-43 -16 -54 -46 -54 -156 0 -112 10 -145 47 -162 36 -16
51 -14 78 14 24 23 25 30 25 140 0 64 -4 125 -10 135 -13 23 -59 39 -86 29z"/>
<path d="M1993 4785 c-32 -14 -43 -32 -43 -72 0 -30 128 -168 175 -188 52 -23
104 12 105 69 0 22 -17 45 -76 107 -86 88 -115 103 -161 84z"/>
<path d="M2614 4641 c-177 -48 -338 -169 -433 -325 -18 -31 -47 -95 -64 -143
-27 -79 -31 -101 -31 -208 -1 -66 2 -138 6 -160 l8 -41 -115 -53 c-431 -201
-720 -533 -827 -951 -25 -98 -31 -145 -38 -315 -5 -120 -15 -222 -24 -255 -22
-81 -96 -223 -168 -323 -100 -140 -117 -168 -138 -225 -52 -138 1 -248 139
-289 l59 -17 4 -48 c3 -29 16 -64 32 -88 25 -38 26 -42 11 -70 -32 -61 -13
-143 47 -200 l35 -33 -19 -66 c-26 -91 -21 -208 11 -274 30 -61 95 -111 180
-138 85 -27 266 -29 439 -4 67 10 124 16 126 14 2 -2 19 -71 39 -153 40 -166
60 -202 138 -246 l44 -25 473 -3 472 -3 0 81 0 80 -457 0 c-252 0 -463 4 -469
8 -20 13 -31 46 -69 207 -42 179 -55 212 -88 220 -13 4 -77 -4 -142 -15 -169
-31 -402 -37 -470 -13 -102 37 -118 112 -60 286 27 81 28 90 15 114 -8 15 -32
36 -54 48 -54 31 -63 50 -30 72 52 36 64 53 64 88 0 35 -3 39 -79 88 -19 12
-36 27 -38 33 -2 6 10 28 27 49 36 45 38 75 7 108 -19 21 -37 26 -119 35 -53
6 -106 15 -117 22 -42 22 -18 90 79 220 79 107 160 246 194 334 41 103 56 188
56 326 0 278 64 496 208 715 68 103 238 269 358 348 82 54 297 167 318 167 3
0 16 -17 29 -37 13 -21 63 -83 111 -138 47 -55 86 -103 86 -106 0 -4 -13 -12
-29 -19 -26 -10 -36 -8 -102 25 -61 31 -80 36 -118 32 -41 -5 -53 -13 -143
-104 -94 -96 -98 -102 -98 -144 0 -30 11 -68 34 -116 l34 -71 -28 -58 c-15
-33 -33 -78 -40 -102 -16 -52 -19 -54 -104 -82 -113 -37 -136 -76 -136 -230 0
-155 27 -197 147 -232 l73 -22 16 -50 c9 -28 29 -77 45 -109 l29 -58 -35 -69
c-25 -50 -35 -83 -35 -116 0 -45 3 -50 88 -136 130 -134 151 -140 272 -82 l74
35 78 -36 c43 -19 92 -38 108 -41 26 -6 32 -14 55 -84 17 -50 36 -87 56 -106
30 -29 31 -29 167 -32 121 -2 141 0 168 16 52 33 64 73 64 216 0 69 -3 126 -7
126 -5 0 -22 -9 -40 -20 -36 -22 -53 -50 -79 -132 l-18 -58 -77 0 -78 0 -23
72 c-28 87 -57 118 -132 141 -32 10 -94 36 -139 58 -44 21 -90 39 -101 39 -11
0 -55 -17 -98 -37 l-79 -37 -49 49 c-28 27 -50 55 -50 62 0 8 14 41 31 75 40
79 39 116 -4 204 -19 38 -44 99 -57 136 -26 81 -48 101 -142 129 l-68 21 0 77
0 77 69 22 c95 31 115 50 141 130 13 37 38 99 57 137 44 88 45 126 4 204 -17
33 -31 66 -31 73 0 8 22 36 50 63 l49 49 79 -37 c89 -42 101 -44 158 -18 l42
19 4 -111 c3 -89 8 -121 26 -156 l22 -44 -55 -59 c-95 -102 -135 -207 -135
-349 0 -241 152 -434 392 -495 78 -20 199 -14 278 13 l55 19 3 87 3 86 -63
-32 c-58 -29 -71 -32 -158 -32 -82 0 -103 4 -152 27 -73 34 -142 103 -176 176
-23 49 -27 70 -27 152 0 82 4 103 27 152 14 31 46 77 71 101 l44 45 54 -19
c77 -26 240 -26 310 1 29 10 56 17 61 14 4 -3 8 119 8 270 0 177 -4 276 -10
276 -6 0 -10 85 -10 235 0 150 4 235 10 235 6 0 10 33 10 80 0 47 -4 80 -10
80 -5 0 -10 9 -10 19 0 11 5 23 10 26 6 3 10 40 10 81 l0 76 -32 -7 c-72 -15
-138 -91 -138 -157 l0 -38 -50 0 c-48 0 -50 1 -50 28 0 34 -31 101 -56 124
-29 25 -88 48 -126 48 -76 0 -157 -68 -173 -147 -20 -99 79 -213 188 -213 16
0 17 -18 17 -235 0 -223 -1 -235 -19 -235 -13 0 -28 19 -49 63 -17 34 -72 109
-121 167 -107 123 -154 210 -171 311 -49 287 135 571 416 644 81 21 214 19
297 -4 l67 -18 0 78 0 78 -37 12 c-21 6 -96 13 -168 15 -106 3 -143 0 -201
-15z m-20 -667 c10 -27 7 -34 -19 -34 -18 0 -25 5 -25 18 0 34 33 45 44 16z
m256 -429 l0 -235 -50 0 -50 0 0 235 0 235 50 0 50 0 0 -235z m160 -415 l0
-30 -215 0 -215 0 0 30 0 30 215 0 215 0 0 -30z m-49 -204 c-26 -31 -79 -46
-160 -46 -84 0 -135 14 -160 43 -12 16 0 17 159 17 147 0 171 -2 161 -14z"/>
<path d="M1652 3997 c-29 -31 -28 -72 3 -102 23 -24 30 -25 138 -25 100 0 117
3 141 21 33 26 36 79 6 109 -18 18 -33 20 -143 20 -116 0 -125 -1 -145 -23z"/>
</g>
</svg>
